<?xml version="1.0" encoding="utf-8"?>
<!-- Generator: Adobe Illustrator 19.0.0, SVG Export Plug-In . SVG Version: 6.00 Build 0)  -->
<svg version="1.1" id="Layer_1" xmlns="http://www.w3.org/2000/svg" xmlns:xlink="http://www.w3.org/1999/xlink" x="0px" y="0px"
	 viewBox="-314.4 259.9 44.8 44.8" style="enable-background:new -314.4 259.9 44.8 44.8;" xml:space="preserve">
<style type="text/css">
	.st0{fill:#FFFFFF;}
</style>
<title></title>
<g>
	<path class="st0" d="M-287.6,275.9c0-0.4-0.3-0.7-0.7-0.7h-9.6c-0.2,0-0.4,0.1-0.5,0.3c-1.1,3.4-2.8,8.8-3.2,10.2
		c0.1,0.2,0.3,0.3,0.5,0.3h6.7c0.5,0,0.9,0.2,1.2,0.6c0.3,0.4,0.4,0.8,0.3,1.3l-1.1,4.9c0,0.1,0.1,0.2,0.1,0.2l0,0l6.1-6l0.1-0.1
		c0.1-0.1,0.1-0.2,0.1-0.3v-0.1C-287.6,286.5-287.6,275.9-287.6,275.9z"/>
	<path class="st0" d="M-292,259.9c-12.4,0-22.4,10-22.4,22.4c0,12.4,10,22.4,22.4,22.4c12.4,0,22.4-10,22.4-22.4
		C-269.6,269.9-279.6,259.9-292,259.9z M-292.4,295.8c-0.2,0.2-0.5,0.4-0.9,0.4l-0.6,0.1c-0.1,0-0.1,0-0.2,0c-0.4,0-0.7-0.1-1-0.4
		l-0.9-0.7c-0.1-0.1-0.1-0.1-0.2-0.2c-0.4-0.5-0.7-1.2-0.8-1.9c0-0.1,0-0.1,0-0.2v-0.3c0-0.1,0-0.2,0-0.3l0.7-3.2h-4.9
		c-1.8,0-3.3-1.3-3.6-3.1c-0.1-0.4,0.1-1.1,3.4-11.4v-0.1c0.6-1.3,1.9-2.2,3.3-2.2h9.6c2,0,3.7,1.6,3.7,3.6v10.7c0,1-0.4,2-1.1,2.6
		L-292.4,295.8z M-279.3,286.6c0,0.8-0.7,1.5-1.5,1.5c-0.8,0-1.5-0.7-1.5-1.5v-12.8c0-0.8,0.7-1.5,1.5-1.5c0.8,0,1.5,0.7,1.5,1.5
		V286.6z"/>
</g>
</svg>
