<?xml version="1.0" encoding="utf-8"?>
<!-- Generator: Adobe Illustrator 19.0.0, SVG Export Plug-In . SVG Version: 6.00 Build 0)  -->
<svg version="1.1" id="Layer_1" xmlns="http://www.w3.org/2000/svg" xmlns:xlink="http://www.w3.org/1999/xlink" x="0px" y="0px"
	 viewBox="-405.4 285.8 18.9 18.9" style="enable-background:new -405.4 285.8 18.9 18.9;" xml:space="preserve">
<style type="text/css">
	.st0{fill:#FFFFFF;}
</style>
<path class="st0" d="M-388.4,302c0,0.9-0.7,1.6-1.6,1.6h-12.8c-0.9,0-1.6-0.7-1.6-1.6v-12.8c0-0.9,0.7-1.6,1.6-1.6h7.5v-1.1h-7.5
	c-1.5,0-2.7,1.2-2.7,2.6V302c0,1.5,1.2,2.7,2.7,2.7h12.8c1.5,0,2.7-1.2,2.7-2.7v-7.4h-1.1L-388.4,302L-388.4,302z"/>
<path class="st0" d="M-387.2,286.4c-0.8-0.8-2.2-0.8-3,0l-7.1,7.1c-0.1,0.1-0.1,0.2-0.1,0.2l-0.8,3c0,0.2,0,0.4,0.1,0.5
	c0.1,0.1,0.2,0.2,0.4,0.2c0,0,0.1,0,0.1,0l3-0.8c0.1,0,0.2-0.1,0.2-0.1l7.1-7.1c0.4-0.4,0.6-0.9,0.6-1.5S-386.8,286.9-387.2,286.4z
	 M-395,295.7l-2,0.5l0.5-2l5.9-5.9l1.5,1.5L-395,295.7z M-387.9,288.7l-0.4,0.4l-1.5-1.5l0.4-0.4c0.4-0.4,1.1-0.4,1.5,0
	c0.2,0.2,0.3,0.5,0.3,0.8C-387.6,288.2-387.7,288.5-387.9,288.7z"/>
</svg>
