<?xml version="1.0" encoding="utf-8"?>
<!-- Generator: Adobe Illustrator 19.0.0, SVG Export Plug-In . SVG Version: 6.00 Build 0)  -->
<svg version="1.1" id="Layer_1" xmlns="http://www.w3.org/2000/svg" xmlns:xlink="http://www.w3.org/1999/xlink" x="0px" y="0px"
	 viewBox="-314.4 259.9 44.8 44.8" style="enable-background:new -314.4 259.9 44.8 44.8;" xml:space="preserve">
<style type="text/css">
	.st0{fill:#FFFFFF;}
</style>
<title></title>
<g>
	<path class="st0" d="M-282.4,278.5L-282.4,278.5h-6.7c-0.5,0-0.9-0.2-1.2-0.6s-0.4-0.8-0.3-1.3l1.1-4.9c0-0.1,0-0.2-0.1-0.3l0,0
		l-6.1,6l-0.1,0.1c-0.1,0.1-0.1,0.2-0.1,0.3v0.1v10.7c0,0.4,0.3,0.7,0.7,0.7h9.6c0.2,0,0.4-0.1,0.5-0.3c1.1-3.4,2.8-8.8,3.2-10.2
		C-281.9,278.6-282.2,278.5-282.4,278.5z"/>
	<path class="st0" d="M-292,259.9c-12.4,0-22.4,10-22.4,22.4c0,12.4,10,22.4,22.4,22.4c12.4,0,22.4-10,22.4-22.4
		C-269.6,269.9-279.6,259.9-292,259.9z M-301.2,290.8c0,0.8-0.7,1.5-1.5,1.5c-0.8,0-1.5-0.7-1.5-1.5v-12.9c0-0.8,0.7-1.5,1.5-1.5
		c0.8,0,1.5,0.7,1.5,1.5V290.8z M-282.2,290L-282.2,290c-0.6,1.4-1.9,2.3-3.3,2.3h-9.6c-2,0-3.7-1.6-3.7-3.6V278c0-1,0.4-2,1.2-2.7
		l6.7-6.6c0.2-0.2,0.5-0.4,0.9-0.4l0.6-0.1c0.4-0.1,0.9,0.1,1.2,0.4l0.9,0.8c0.1,0.1,0.1,0.1,0.2,0.2c0.4,0.6,0.7,1.2,0.7,1.9v0.1
		v0.3c0,0.1,0,0.2,0,0.3l-0.7,3.2h4.8c1.8,0,3.3,1.3,3.6,3.1C-278.7,279-278.9,279.7-282.2,290z"/>
</g>
</svg>
